{"title":"Letters to God 2010.720p.BRRip.x264.Feel-Free","uid":6147617,"size":2405978335,"categoryP":"video","categoryS":"hd___movies","magnet":"?xt=urn:btih:0bb61775149766c2f441bf7f357d4043863bfb54&amp;dn=Letters+to+God+2010.720p.BRRip.x264.Feel-Free&amp;tr=udp%3A%2F%2Ftracker.openbittorrent.com%3A80&amp;tr=udp%3A%2F%2Fopen.demonii.com%3A1337&amp;tr=udp%3A%2F%2Ftracker.coppersurfer.tk%3A6969&amp;tr=udp%3A%2F%2Fexodus.desync.com%3A6969","seeders":3,"leechers":2,"uploader":"neon","files":-1,"time":1296752177,"description":"\nGenre:Drama | Family\nLanguage:English\n &lt;a href=&quot; http://www.imdb.com/title/tt1462054/&quot; rel=&quot;nofollow&quot; target=&quot;_NEW&quot;&gt; http://www.imdb.com/title/tt1462054/&lt;/a&gt;\nSource:BluRay.X264-AMIABLE\n\n\nFormat : MPEG-4\nFormat profile : Base Media\nCodec ID : isom\nFile size : 2.23 GiB\nDuration : 1h 53mn\nOverall bit rate : 2 812 Kbps\n\n\nVideo\nFormat settings, CABAC : Yes\nFormat settings, ReFrames : 3 frames\nCodec ID : avc1\nCodec ID/Info : Advanced Video Coding\nDuration : 1h 53mn\nBit rate mode : Variable\nBit rate : 2 482 Kbps\nMaximum bit rate : 13.9 Mbps\nWidth : 1 280 pixels\nHeight : 720 pixels\nDisplay aspect ratio : 16:9\nFrame rate mode : Constant\nFrame rate : 23.976 fps\nColor space : YUV\nChroma subsampling : 4:2:0\nBit depth : 8 bits\nScan type : Progressive\nBits/(Pixel*Frame) : 0.112\nStream size : 1.88 GiB (84%)\nWriting library : x264\n\n\nAudio\nID : 2\nFormat : AAC\nFormat/Info : Advanced Audio Codec\nFormat version : Version 4\nFormat profile : LC\nFormat settings, SBR : No\nCodec ID : 40\nDuration : 1h 53mn\nBit rate mode : Variable\nBit rate : 443 Kbps\nMaximum bit rate : 512 Kbps\nChannel(s) : 6 channels\nChannel positions : Front: L C R, Side: L R, LFE\nSampling rate : 48.0 KHz\nStream size : 361 MiB (16%)\n\n\nPlot:\nA young boy fighting cancer writes letters to God, touching lives in his neighborhood and community and inspiring hope among everyone he comes in contact\n &lt;a href=&quot;\nhttp://rapidhdd.com/images/113110vlcsnap-00001.png&quot; rel=&quot;nofollow&quot; target=&quot;_NEW&quot;&gt;\nhttp://rapidhdd.com/images/113110vlcsnap-00001.png&lt;/a&gt; &lt;a href=&quot;\nhttp://www.rapidhdd.com/images/768528vlcsnap-00004.png&quot; rel=&quot;nofollow&quot; target=&quot;_NEW&quot;&gt;\nhttp://www.rapidhdd.com/images/768528vlcsnap-00004.png&lt;/a&gt; &lt;a href=&quot;\nhttp://www.rapidhdd.com/images/744732vlcsnap-00005.png&quot; rel=&quot;nofollow&quot; target=&quot;_NEW&quot;&gt;\nhttp://www.rapidhdd.com/images/744732vlcsnap-00005.png&lt;/a&gt; &lt;a href=&quot;\nhttp://www.rapidhdd.com/images/8111vlcsnap-00007.png&quot; rel=&quot;nofollow&quot; target=&quot;_NEW&quot;&gt;\nhttp://www.rapidhdd.com/images/8111vlcsnap-00007.png&lt;/a&gt; &lt;a href=&quot;\nhttp://www.rapidhdd.com/images/98248vlcsnap-00006.png&quot; rel=&quot;nofollow&quot; target=&quot;_NEW&quot;&gt;\nhttp://www.rapidhdd.com/images/98248vlcsnap-00006.png&lt;/a&gt;","torrent":{"xt":"urn:btih:0bb61775149766c2f441bf7f357d4043863bfb54","amp;dn":"Letters+to+God+2010.720p.BRRip.x264.Feel-Free","amp;tr":["udp%3A%2F%2Ftracker.openbittorrent.com%3A80","udp%3A%2F%2Fopen.demonii.com%3A1337","udp%3A%2F%2Ftracker.coppersurfer.tk%3A6969","udp%3A%2F%2Fexodus.desync.com%3A6969"],"infoHash":"0bb61775149766c2f441bf7f357d4043863bfb54","infoHashBuffer":{"type":"Buffer","data":[11,182,23,117,20,151,102,194,244,65,191,127,53,125,64,67,134,59,251,84]},"announce":[],"urlList":[]}}